<svg width="1440" height="612" viewBox="0 0 1440 612" fill="none" xmlns="http://www.w3.org/2000/svg">
<g id="Clouds">
<path id="Rectangle 41" opacity="0.6" d="M151.86 183.173C227.791 231.219 432.745 201.363 477.505 251.738C522.264 302.113 538.463 371.351 631.504 405.383C724.545 439.415 838.5 405.383 933 405.383C1027.5 405.383 1172 464 1241 496.5C1310 529 1440 496.5 1440 496.5V0H0C0 0 75.9302 135.128 151.86 183.173Z" fill="#1DB7ED" fill-opacity="0.1"/>
<path id="Rectangle 42" opacity="0.6" d="M335.5 137C401.517 179.973 564.248 180.104 603.164 225.16C642.08 270.216 656.163 332.145 737.057 362.584C817.952 393.023 898.838 362.584 981 362.584C1063.16 362.584 1096 400 1187.5 400C1279 400 1440 284.5 1440 284.5V0H248C248 0 269.483 94.0271 335.5 137Z" fill="#1DB7ED" fill-opacity="0.1"/>
<path id="Rectangle 43" opacity="0.6" d="M511 158.5C562.622 215.389 738.103 206.643 803.302 256.071C868.5 305.5 865 386.493 906 428.5C947 470.507 1009.25 487.5 1073.5 487.5C1137.75 487.5 1130 536.5 1225.5 588.5C1321 640.5 1440 588.5 1440 588.5V-6.10352e-05H461C461 -6.10352e-05 459.378 101.61 511 158.5Z" fill="#1DB7ED" fill-opacity="0.1"/>
</g>
</svg>
