<?xml version="1.0" encoding="utf-8"?>
<!-- Generator: Adobe Illustrator 24.0.1, SVG Export Plug-In . SVG Version: 6.00 Build 0)  -->
<svg version="1.1" id="Layer_1" xmlns="http://www.w3.org/2000/svg" xmlns:xlink="http://www.w3.org/1999/xlink" x="0px" y="0px"
	 viewBox="0 0 85.6 53" style="enable-background:new 0 0 85.6 53;" xml:space="preserve">
<style type="text/css">
	.st0{fill:#e8f9ff;stroke:#002730;stroke-width:2;stroke-miterlimit:10;}
	.st1{fill:#023F4F;}
</style>
<title>Asset 1</title>
<g id="Layer_2_1_">
	<g id="Layer_2-2">
		<g>
			<path class="st0" d="M13.8,51.5h56.5c2.6,0,6.5,0.2,8.6-1.3c2.6-1.8,5.1-4.8,5.1-10.4c0-11.3-10.6-13.4-15.7-13.4
				c0,0,0.3-22.5-19.1-24.7c-15.3-1.7-20.4,10-20.5,12.9c0,0.2-0.1,0.3-0.3,0.3c-0.1,0-0.2,0-0.2-0.1c-0.8-0.9-2.7-2.3-6.7-2.3
				c-6,0-10.2,6.9-9.4,11.3c0,0-11.5,3-10.6,14.3c0.2,5.1,3.1,9.7,7.5,12.2C10.6,51.1,12.2,51.5,13.8,51.5z"/>
			<ellipse class="st1" cx="51.9" cy="27" rx="3.2" ry="3.2"/>
			<ellipse class="st1" cx="32.4" cy="27" rx="3.2" ry="3.2"/>
			<path class="st1" d="M26.7,43.7L26.7,43.7c-0.7-0.7-0.7-1.8-0.1-2.5c0,0,0,0,0,0c4.2-4.3,10-6.7,16.1-6.7
				c5.6,0.2,10.8,2.6,14.6,6.7c0.7,0.7,0.6,1.8-0.1,2.5c0,0,0,0-0.1,0.1l0,0c-0.7,0.6-1.7,0.5-2.3-0.1c-3.1-3.5-7.6-5.5-12.2-5.7
				C37.5,38,32.6,40,29,43.7C28.4,44.3,27.3,44.4,26.7,43.7z"/>
		</g>
	</g>
</g>
</svg>
