<svg xmlns="http://www.w3.org/2000/svg" viewBox="0 0 85.553 53.015">
  <defs>
    <style>
      .cls-1 {
        fill: none;
        stroke: #000;
        stroke-miterlimit: 10;
        stroke-width: 3px;
      }
    </style>
  </defs>
  <title>Asset 1</title>
  <g id="Layer_2" data-name="Layer 2">
    <g id="Layer_2-2" data-name="Layer 2">
      <g>
        <path class="cls-1" d="M13.849,51.5H70.342c2.612,0,6.477.238,8.607-1.3,2.552-1.841,5.1-4.766,5.1-10.4,0-11.265-10.633-13.432-15.736-13.432,0,0,.306-22.5-19.139-24.7-15.31-1.733-20.444,10-20.469,12.919a.272.272,0,0,1-.475.183c-.807-.9-2.695-2.27-6.7-2.27-5.954,0-10.207,6.933-9.357,11.266,0,0-11.483,3.033-10.632,14.3A14.848,14.848,0,0,0,9.088,50.315,10,10,0,0,0,13.849,51.5Z"/>
        <ellipse cx="51.943" cy="27.021" rx="3.19" ry="3.25"/>
        <ellipse cx="32.379" cy="27.021" rx="3.19" ry="3.25"/>
        <path d="M26.686,43.748v0a1.758,1.758,0,0,1-.04-2.534,22.436,22.436,0,0,1,16.1-6.715,20.646,20.646,0,0,1,14.6,6.71,1.761,1.761,0,0,1-.138,2.541h0a1.676,1.676,0,0,1-2.31-.134,17.323,17.323,0,0,0-12.222-5.651A19.126,19.126,0,0,0,29,43.716,1.672,1.672,0,0,1,26.686,43.748Z"/>
      </g>
    </g>
  </g>
</svg>
