<svg xmlns="http://www.w3.org/2000/svg" viewBox="0 0 85.553 53.015">
  <defs>
    <style>
      .cls-1 {
        fill: none;
        stroke: #000;
        stroke-miterlimit: 10;
        stroke-width: 3px;
      }
    </style>
  </defs>
  <title>Asset 2</title>
  <g id="Layer_2" data-name="Layer 2">
    <g id="Layer_2-2" data-name="Layer 2">
      <path d="M25.726,33.94l0,0a1.68,1.68,0,0,0-.043,2.534,24.892,24.892,0,0,0,17.237,6.715,22.8,22.8,0,0,0,15.626-6.709A1.685,1.685,0,0,0,58.4,33.94h0a1.887,1.887,0,0,0-2.473.134,19.129,19.129,0,0,1-13.083,5.652A21.228,21.228,0,0,1,28.2,33.972,1.88,1.88,0,0,0,25.726,33.94Z"/>
      <path class="cls-1" d="M13.849,51.5H70.342c2.612,0,6.477.238,8.607-1.3,2.552-1.841,5.1-4.766,5.1-10.4,0-11.265-10.633-13.432-15.736-13.432,0,0,.306-22.5-19.139-24.7-15.31-1.733-20.444,10-20.469,12.919a.272.272,0,0,1-.475.183c-.807-.9-2.695-2.27-6.7-2.27-5.954,0-10.207,6.933-9.357,11.266,0,0-11.483,3.033-10.632,14.3A14.848,14.848,0,0,0,9.088,50.315,10,10,0,0,0,13.849,51.5Z"/>
      <ellipse cx="51.943" cy="27.021" rx="3.19" ry="3.25"/>
      <ellipse cx="32.379" cy="27.021" rx="3.19" ry="3.25"/>
    </g>
  </g>
</svg>
